<svg xmlns="http://www.w3.org/2000/svg" id="_レイヤー_2" data-name="レイヤー 2" viewBox="0 0 408.62 140.32"><defs><style>.cls-1{fill:#565656;stroke-width:0}</style></defs><g id="_レイヤー_1-2" data-name="レイヤー 1"><path d="m6.21 140.13-.68.11-.54-.08c-.88-.03-1.38-.38-1.49-1.07l-.1-.6c.04-.8.3-1.36.62-2.03.88-2.08 2.17-3.78 3.55-5.5 2.79-3.27 5.85-6.41 9.05-9.31 4.09-3.84 8.44-7.72 12.83-11.34 1.82-1.71 3.92-3.28 5.84-4.92.3-.31.54-.44.5-.7-.03-.17-.16-.41-.48-.8a7.178 7.178 0 0 0-2.66-1.75c-1.59-.61-3.48-.91-5.27-1.14-3.04-.37-6.14-.55-9.31-.64-3.17-.09-6.25-.18-9.48-.61-1.69-.16-3.25-.6-4.76-1.22-2.19-1.04-3.34-2.69-3.71-4.9l-.11-1.21c-.03-1.22.13-2.39.45-3.58.98-3.58 2.71-6.85 4.76-9.82 3.57-5.42 8.03-10.19 12.92-14.51 4.36-3.79 8.89-7.09 14-9.61 3.37-1.88 6.98-3.35 10.81-4l1.78-.38 2.5-.24c1.31-.04 2.73.07 4.02.47 2.63.52 4.61 1.86 5.63 4.32.27.57.38 1.25.48 1.85.24 1.45.16 1.46.14 2.96-.33 2.25-.85 4.35-1.83 6.35-1.78 4.06-4.03 7.86-7.12 10.92-.43.6-.97 1.04-1.54 1.31-.24.13-.41.16-.58.19-.17.03-.36-.03-.64-.16 2.25-1.25 3.57-3.31 4.99-5.3 2.02-3.14 3.76-6.32 4.81-10 .57-2.37.77-3.28.55-5.61l-.1-.6c-.38-2.3-1.62-3.94-3.82-5.06-1.79-.75-2.84-.75-4.69-.79-.97-.01-1.9.14-2.84.3-1.54.26-2.96.67-4.46 1.1-4.41 1.44-8.43 3.6-12.38 6.18-5.51 3.72-10.5 7.97-14.92 13.01-3.03 3.4-5.91 7.12-8.13 11.17-1.88 3.99-3.13 5.95-2.68 10.7.34 2.05 1.55 3.51 3.54 4.41 1.69.68 3.48.91 5.36 1.12 2.57.18 5.14.37 7.79.45 3.96.13 7.83.18 11.71.85 1.18.24 2.27.5 3.38.84 1.12.43 2.17.95 3.01 1.78.31.3.51.44.68.41l.55-.36c3.78-3.08 11.83-7.32 16.87-9.74.33-.14.57-.27.91-.33l.17-.03c.17-.03.26-.04.38.2l-.46.43c-4.52 1.81-13.16 6.75-17.32 10.16-.4.24-.54.44-.57.8.03.17.06.34.19.58l.2.67.03.7c-.03.88-.23 1.79-.51 2.71-.78 2.15-1.93 4.18-3.28 6.07-2.81 4.15-6.07 7.76-9.52 11.23-3.99 3.91-8.1 7.66-12.76 10.72-1.35.84-2.86 1.79-4.42 2.4-.58.19-1.25.38-1.85.48Zm-.12-.68.84-.23c.9-.41 1.79-.82 2.59-1.31 2.94-1.81 5.58-3.82 8.26-6.2 3.74-3.34 7.42-7.02 10.78-11 1.98-2.34 3.85-4.76 5.41-7.48 1.24-2.05 2.39-4.08 2.39-6.71l-.03-.17c-.04-.26-.06-.34-.31-.3h-.09c-.26.06-.38.34-.63.47-4.6 3.92-9.21 7.85-13.7 11.93-3.86 3.62-7.57 7.14-11.12 11.06-1.18 1.34-2.27 2.66-3.34 4.15-.85 1.19-1.61 2.46-2.14 3.95-.27.48-.16.64-.26 1.09l.04.26c.07.43.36.55.71.58l.6-.1Z" class="cls-1"/><path d="m42.69 140.27-.26.04c-.26.04-.44-.01-.48-.27l-.03-.17.14-.72c.75-5.47 1.87-10.83 3.17-16.21 1.49-5.77 3.24-11.58 5.18-17.25 1.38-3.82 2.93-7.67 4.57-11.45.37-.94.84-1.81 1.29-2.76.2-.38.5-.7.92-.77l.17-.03c.34-.06.54.09.58.34l-.04.27c-.03.36-.23.74-.36 1.02-2.76 6.59-5.23 13.32-7.24 20.14-.16.64-.41 1.21-.58 1.76l.18.06 1.79-3.98c2.44-5.32 5.17-10.5 8.31-15.32.84-1.28 1.69-2.47 2.64-3.6.45-.43.91-.85 1.38-1.19.33-.14.65-.28.99-.34l.43-.07c.78-.04 1.28.31 1.41 1.08l.03.17c.01 1.14-.17 2.13-.52 3.15-.23.74-.54 1.49-.85 2.25-.06.18-.2.38-.17.55l.17-.03c.17-.03.33-.14.48-.26 3.55-2.35 7.22-4.53 11.01-6.48 1.31-.57 2.51-1.21 3.88-1.44l1.02-.17c.17-.03.34-.06.54.08.04.26-.13.28-.3.31l-.43.07c-1.19.2-2.34.65-3.4 1.18a93.232 93.232 0 0 0-10.83 6.54c-1.25.91-2.4 1.89-3.42 3.11-.31.23-.62.45-.97.51l-.26.04c-.27-.04-.45-.1-.48-.27l.03-.36c.14-.2.28-.4.33-.67.92-1.82 1.68-3.61 2.23-5.54.31-.75.46-1.48.41-2.26l.03-.35c-.03-.17-.04-.26-.23-.31-.1-.07-.19-.06-.27-.04-.17.03-.33.14-.4.24-.7.55-1.21 1.17-1.72 1.78-1.66 2.12-3.04 4.36-4.42 6.61-4.65 7.87-8.27 16.1-11.21 24.74-1.01 2.88-1.65 5.88-2.29 8.88l-1.25 5.64-.4 1.29c-.13.28-.28.4-.54.44Z" class="cls-1"/><path d="m86.3 97.5-.77.13c-.77.13-1.55.17-2.34.13-1.88-.21-3.11-1.32-3.4-3.03l-.07-.95c.08-.54.1-.98.28-1.45 1.42-4.09 3.98-7.15 7.87-9.03.48-.26.98-.43 1.41-.5l.43-.07c.6-.1 1.02-.17 1.46-.16.71.06 1.02.36 1.11.87.03.17.07.43-.06.71-.11.37-.23.74-.44 1.04-1.66 2.12-3.79 3.53-6.41 4.14-.17.03-.34.06-.53 0s-.44-.01-.61.01c-.6.1-.95.6-1.29 1.18-.47.87-.85 1.72-1.14 2.64-.08.54-.17 1.08-.17 1.61l.04.26c.21 1.28 1.04 2.02 2.44 2.05.54.08 1.05 0 1.56-.09.68-.11 1.44-.33 2.17-.62 2.06-.78 3.98-1.89 5.78-3.16 3.69-2.54 7.29-5.16 10.67-8 .63-.45 1.07-.97 1.59-1.49l.24-.13c.08-.01.17-.03.18.06l.11.16c.01.09-.06.19-.13.28l-.68.64c-1.12 1.15-2.44 2.16-3.77 3.17-3.11 2.36-6.22 4.72-9.55 6.85-1.9 1.19-3.84 2.22-6.02 2.76Zm-.86-8.8c1.93-.5 3.54-1.38 4.86-2.91.23-.21.43-.6.62-.98.06-.18.1-.45.07-.62l-.16-.41c-.21-.23-.38-.2-.64-.16l-.34.06c-.82.31-1.53.78-2.23 1.34-1.01.78-1.9 1.72-2.7 2.73-.21.3-.63.45-.57.8v.09c.13.16.31.21.48.19l.6-.1Z" class="cls-1"/><path d="M107.29 99.87c-.43.07-.85.14-1.29.13-1.93-.03-3.16-1.05-3.47-2.93l-.08-.51c-.34-2.05.01-4.12.74-6.08 1.65-4.83 4.46-8.98 8.37-12.35 1.45-1.29 3.13-2.27 5.03-2.94.65-.28 1.42-.41 2.1-.53 1.12-.1 2.43.38 2.67 1.83l.04.78c-.01.44-.01.97-.2 1.44-.06.18-.11.37-.28.4l-.18-.06-.11-.16-.04-.26c.08-.54.08-1.07 0-1.58-.29-1.18-1.08-1.75-2.27-1.55-.68.11-1.24.47-1.88.84-2.07 1.22-3.82 2.83-5.44 4.68-2.27 2.66-4.15 5.6-5.44 8.88-.89 1.99-1.42 4.09-1.49 6.3l.04.78.34.99c.51.97 1.29 1.45 2.42 1.35l.43-.07c.77-.13 1.42-.41 1.99-.68 1.38-.67 2.64-1.49 3.89-2.4 4.99-3.72 9.76-7.68 14.42-11.78l4.65-4.19c.16-.11.36-.5.61-.54.09-.01.18.06.3.21v.08c.06.26-.27.4-.5.61a253.507 253.507 0 0 1-18.42 15.69c-1.71 1.34-3.51 2.6-5.67 3.31-.41.16-.84.23-1.26.3Z" class="cls-1"/><path d="m133.19 92.83-.26.04c-1.38.14-2.26-.41-2.73-1.65l-.34-.99c-.09-.51-.07-.95.01-1.49.07-1.68.41-3.31.85-4.87.84-2.86 1.86-5.66 3.17-8.33l.65-1.34c.21-.3.44-.51.78-.57h.53c.27.04.46.1.48.27l-.04.27-.38.85c-1.46 3.31-2.84 6.61-3.83 10.1-.54 1.49-.98 3.06-.97 4.72-.06.18-.01.44.01.61.23 1.36.87 2.05 2.06 1.85l.75-.21c1.06-.44 1.92-1.11 2.84-1.88 3.6-3.14 7.05-6.61 10-10.43l1.95-2.52c.14-.2.34-.58.6-.63l.27.04.03.17c.01.09-.06.18-.13.28-3.71 5.09-7.84 9.72-12.6 13.76-1.08.88-2.26 1.69-3.71 1.93Zm3.39-21.16c-.26.04-.53 0-.88-.03-.17.03-.36-.03-.4-.28-.03-.17.11-.37.18-.47 1.04-.61 2.07-1.22 3.24-1.59.33-.14.65-.28.99-.34l.7-.03c.18.06.37.11.4.28v.09c.06.25-.2.3-.37.33-1.28.21-2.3.91-3.3 1.78-.23.21-.31.23-.57.27Z" class="cls-1"/><path d="m146.15 87.51-.78.04c-.88-.03-1.28-.31-1.41-1.08l-.04-.26c-.1-.6-.03-1.22.14-1.78.38-1.38 1.07-2.54 1.83-3.72 1.88-2.94 4.18-5.43 6.99-7.48 1.02-.7 2.07-1.22 3.27-1.42l.43-.07c.51-.09.95-.07 1.51.1.65.24 1.31 1.01 1.42 1.69v.53c.03.17-.04.27-.21.3-.08.01-.18-.06-.28-.13-.13-.24-.26-.48-.47-.71-.47-.71-1.05-1.05-1.82-.92-.17.03-.43.07-.67.2-.9.41-1.68.98-2.36 1.62-2.91 2.5-5.13 5.5-6.85 8.85-.4.77-.62 1.51-.74 2.4l.04.26c.03.17.04.26.14.33l.17-.03c.17-.03.26-.04.33-.14l2.6-2.27c1.95-1.99 3.91-3.89 5.87-5.8.3-.31.6-.63 1.09-.8l.26-.04c.43-.07.81.13.88.55l.1 2.7.21.75c.4.81.98 1.15 1.83 1.01l.43-.07c1.17-.37 2.2-.98 3.24-1.59l11.86-7.68 1.14-.54.27.04c.03.17-.04.27-.11.37l-.3.31-13.13 8.5c-.95.6-2 1.12-3.11 1.31l-.17.03c-1.96.33-3.17-.61-3.47-2.4l-.1-.6-.06-1.39-.1-.07c-.26.04-.4.24-.54.44-1.8 1.79-3.5 3.74-5.2 5.6l-1.95 1.99c-.61.54-1.34.92-2.19 1.07Z" class="cls-1"/><path d="m177.46 95-.34.06c-1.12.1-2.06-.27-2.9-1.09-.85-.91-1.21-1.99-1.41-3.18l-.1-.6c-.4-2.91.01-5.7.59-8.51 1.14-5.8 2.81-11.51 4.77-17.1 2.1-5.78 4.39-11.51 6.97-17.03 2.97-6.37 6.15-12.51 9.9-18.39 1.79-2.93 3.68-5.78 5.87-8.43 1.09-1.32 2.19-2.64 3.59-3.67.64-.37 1.28-.74 2.05-.87 1.04-.08 1.52.18 1.78 1.19l.21.75c.1.6.04 1.31-.11 1.95-.33 2.25-1.09 4.48-1.96 6.64-1.97 4.97-4.43 9.68-6.99 14.31-2.17 3.78-4.35 7.56-6.63 11.19-3.75 5.88-7.5 11.77-12.06 17-.81.92-1.63 1.76-2.56 2.53-.47.34-.67.72-.84 1.28-1.12 3.78-2.23 7.65-2.88 11.61-.31 1.8-.53 3.68-.4 5.5l.07.95c.13.77.41 1.42.78 2.06.61 1.04 1.56 1.49 2.59 1.32l.99-.34c.72-.38 1.35-.84 1.96-1.38 1.45-1.29 2.7-2.73 3.85-4.24 3.58-4.28 6.65-9 9.32-14 .92-1.82 1.95-3.57 2.96-5.4.14-.2.2-.38.46-.43h.08l.03.16c.06.34-.1.45-.23.74-2.16 3.87-4.12 7.87-6.48 11.6-2.7 4.31-5.8 8.33-9.49 11.92-.98.95-2.09 1.66-3.45 1.89Zm.52-24.19c.5-.17.71-.47.85-.67 1.63-1.76 3.15-3.68 4.59-5.59 1.88-2.42 3.64-4.99 5.31-7.55 3.08-4.63 5.97-9.41 8.75-14.26 2.73-4.66 5.34-9.48 7.49-14.48 1.08-2.46 1.97-4.97 2.5-7.6.13-.81.25-1.62.11-2.47l-.06-.34c-.2-.67-.51-.97-.94-.89-.26.04-.51.08-.74.3-1.09.8-1.89 1.81-2.79 2.74-2.26 2.74-4.12 5.77-5.98 8.8-3.51 5.76-6.63 11.71-9.55 17.89-3.03 6.55-5.77 13.23-8.14 20.02-.48 1.31-.97 2.62-1.42 4.09ZM222.31 97.5c-.34.06-.61.01-.89-.11-.2-.14-.23-.31-.26-.48v-.61c.25-2.59.89-5.06 1.45-7.52 1.88-7.67 4.3-15.18 6.73-22.68 1.35-3.99 2.78-8 4.22-12.01.11-.37.31-.75.23-1.27l-.17.03c-.34.06-.57.27-.81.4-2.34 1.18-4.73 2.63-7.05 3.98-.31.23-.62.45-1.05.53a.674.674 0 0 1-.46-.1v-.08c-.04-.17.03-.27.1-.37.23-.21.47-.34.71-.47 2.67-1.85 5.57-3.38 8.47-4.92.72-.38 1.09-.8 1.41-1.55.64-1.95 1.38-3.82 2.03-5.68.18-.47.28-.92.2-1.44l-.06-.34c-.2-.67-.33-1.44-.61-2.09-1.09-2.88-3.45-4.42-6.51-4.35l-1.91.14c-1.19.2-2.36.57-3.4 1.18-.33.14-.57.27-.82.31h-.61c-.18-.04-.2-.13-.21-.21-.01-.09-.03-.17.04-.27s.23-.21.4-.24c6.68-4.62 13.46-9.17 20.62-12.99.57-.27.85-.67 1.11-1.24.84-2.33 1.68-4.66 2.24-7.04.21-.82.34-1.63.37-2.52l-.04-.26c-.04-.26-.14-.33-.31-.3l-.5.17c-1.12.62-2.1 1.58-3.11 2.36l-1.07.97-.43.07-.03-.17c-.01-.08.06-.18.13-.28 1.36-1.28 2.71-2.64 4.39-3.62l.91-.33c.85-.14 1.28.31 1.41 1.08l.07.43c.03.7-.04 1.32-.18 2.05-.37 1.99-1.09 3.95-1.63 5.97-.14.2-.29.4-.26.57l.11.16c.1.07.18.06.27.04.17-.03.33-.14.48-.26 4.62-2.26 9.37-4.28 14.25-5.97 2.66-.88 5.26-1.58 7.99-2.03l2.14-.27c1.64-.19 3.21-.19 4.78.25 1.49.54 2.35 1.45 2.56 2.73v1.14c-.07 1.59-.53 3.07-1.05 4.65a.92.92 0 0 1-.44.51l-.17.03c-.17.03-.35-.03-.4-.28l.06-.19c.04-.27.08-.54.21-.82.34-1.11.6-2.2.75-3.37l-.03-1.22c-.27-1.62-1.36-2.4-3.08-2.73-.99-.18-2.05-.18-3.08-.1l-1.7.28c-1.62.27-3.31.64-4.99 1.09-6.35 1.85-12.31 4.51-18.19 7.59-.71.47-1.17.9-1.46 1.73-2.29 6.25-4.67 12.44-6.97 18.6-.17.55-.26 1.09-.17 1.61.07.95-.03 1.93-.06 2.81l.06.34c.04.26.06.34.31.3l.41-.16c2.19-1.07 4.38-2.13 6.67-3.13 3.01-1.38 6.04-2.67 9.19-3.73.84-.23 1.75-.55 2.69-.71.51-.09 1.12-.1 1.65-.1.35.03.79.04 1.18.24.28.13.48.27.61.51l.16.41c.03.17.04.26-.11.37l-.24.13c-.26.04-.44-.01-.57-.26-.6-.95-1.45-.81-2.39-.65l-.51.09c-1.02.17-2.02.51-3 .94-4.22 1.49-8.28 3.4-12.25 5.37l-3.24 1.59c-.5.17-.71.47-.8 1.01-.68 5.9-2.29 11.51-3.97 17.14-2.12 6.75-4.69 13.4-7.37 19.9-1.05 2.63-2.2 5.19-3.35 7.75l-.82 1.36c-.14.2-.3.31-.46.43l-.5.17Zm1.23-5.2.31-.23 1.19-2.83c3.47-8.11 6.66-16.27 9.1-24.74 1.25-4.06 2.31-8.19 2.84-12.39.06-.18.1-.45.07-.62-.01-.09-.03-.17-.21-.23l-.17.03c-.26.04-.3.31-.43.6-.43 1.12-.85 2.25-1.19 3.35-1.85 5.22-3.68 10.52-5.41 15.89-1.88 5.57-3.57 11.2-5.14 16.98l-.97 4.19Zm14.84-51.29c.23-.74.4-1.29.67-1.78 1.56-4.29 3.22-8.51 4.87-12.82.06-.18.2-.38.17-.55l-.14-.33c-5.51 3.2-10.81 6.62-16.17 10.24.27.04.44.01.61-.01l.51-.09c1.19-.2 2.34-.13 3.51.03 2.62.44 4.33 1.82 5.43 4.18l.54 1.14ZM269.87 66.87l-.77.13c-.77.13-1.55.17-2.34.13-1.88-.21-3.11-1.32-3.4-3.03l-.07-.95c.09-.54.1-.98.28-1.45 1.42-4.09 3.98-7.15 7.87-9.03.48-.26.98-.43 1.41-.5l.43-.07c.6-.1 1.02-.17 1.46-.16.71.06 1.02.35 1.11.87.03.17.07.43-.06.71-.11.37-.23.74-.44 1.04-1.66 2.12-3.79 3.53-6.41 4.14-.17.03-.34.06-.53 0-.18-.06-.44-.01-.61.01-.6.1-.95.6-1.29 1.18-.47.87-.85 1.72-1.14 2.64-.09.54-.17 1.08-.17 1.61l.04.26c.21 1.28 1.04 2.02 2.44 2.05.54.08 1.05 0 1.56-.09.68-.11 1.44-.33 2.17-.62 2.06-.78 3.98-1.89 5.78-3.16 3.7-2.54 7.29-5.16 10.67-8 .62-.45 1.07-.97 1.59-1.49l.24-.13c.08-.01.17-.03.18.06l.11.16c.01.09-.06.18-.13.28l-.68.64c-1.12 1.15-2.44 2.16-3.77 3.17-3.11 2.36-6.22 4.72-9.55 6.85-1.91 1.19-3.84 2.22-6.03 2.76Zm-.86-8.8c1.93-.5 3.54-1.38 4.86-2.91.23-.21.43-.6.62-.98.06-.18.1-.45.07-.62l-.16-.41c-.21-.23-.38-.2-.64-.16l-.34.06c-.82.31-1.53.78-2.23 1.34-1.01.78-1.9 1.72-2.7 2.73-.21.3-.62.45-.57.8v.09c.13.16.31.21.48.18l.6-.1Z" class="cls-1"/><path d="M330.47 20.39c-.6.1-1.18.28-1.76.47-.33.14-.54.44-.67.73-1.93 3.65-3.96 7.23-6.08 10.83-1.86 3.03-3.71 6.14-5.67 9.1-1.88 2.94-3.85 5.81-5.84 8.6-1.86 2.5-3.71 5.09-5.87 7.38-.53.53-1.07.97-1.59 1.49-.61.54-1.25.91-2 1.12-1.42.41-2.54-.01-3.2-1.31-.62-1.12-.65-2.34-.58-3.5 0-1.05.27-2.06.44-3.14-.51.09-.64.37-.95.6-1.26 1.35-2.54 2.62-3.72 3.95-.53.53-1.07.97-1.71 1.34-.72.38-1.58.53-2.39.4-.71-.06-1.02-.35-.88-1.08.03-.35.13-.81.33-1.19 1.36-2.86 3.32-5.29 6.11-6.98.8-.48 1.71-.81 2.64-.97 1.72-.2 2.64.61 2.74 2.26.06.34.01.61.14.85.03.17.14.33-.01.44-.26.04-.37-.11-.48-.27 0 0-.01-.09-.13-.24-.45 1.48-.75 2.84-.78 4.25-.06.71-.03 1.41.1 2.17.5 1.93 1.62 2.36 3.25 1.12 1.48-1.12 2.64-2.54 3.82-3.88 4.08-4.97 7.67-10.22 11.15-15.62 2.8-4.24 5.4-8.61 8-12.99.82-1.36 1.55-2.8 2.36-4.25.06-.18.28-.4.16-.64-.28-.13-.53 0-.78.04-3.91 1.27-7.83 2.45-11.74 3.71-6.57 2.15-13.07 4.64-19.6 7.04-.84.23-1.66.54-2.52.68-.17.03-.34.06-.43.07-.34.06-.68.11-.84-.3-.04-.26.18-.47.43-.6.47-.34 1.02-.7 1.51-.95 1.52-.87 3.05-1.65 4.66-2.53.33-.14.65-.28.99-.34.26-.04.53 0 .57.26s-.23.21-.47.34c-1.56.61-2.98 1.55-4.59 2.43.46.1.7-.03.87-.06 5.27-2.02 10.56-3.95 15.87-5.72 4.49-1.45 8.89-2.89 13.4-4.25.92-.24 1.92-.58 2.84-.82.43-.07.72-.38.92-.77 1.68-3.08 3.34-6.25 4.92-9.41 1.24-2.57 2.12-5.17 3.1-7.7.24-.65.5-1.22.75-1.79.13-.28.27-.48.43-.6.24-.13.4-.24.6-.1.29.13.23.31.19.58-.41 1.21-.82 2.42-1.22 3.71-1.45 4.45-2.88 8.98-4.22 13.59.01.08-.04.27-.11.37-.03.36.17.5.43.45.58-.19 1.17-.37 1.85-.48 3.27-.9 6.52-1.88 9.8-2.69 2.86-.74 5.63-1.46 8.5-2.12 3.2-.8 6.51-1.44 9.82-2.08 2.96-.67 5.95-1.08 8.9-1.31 2.25-.2 4.49-.4 6.72-.16.27.04.45.1.71.06.1.07.2.14.21.23.04.26-.13.28-.3.31-.27-.04-.53 0-.71-.06-3.47-.3-6.82.09-10.25.57-3.51.5-7.06 1.27-10.53 2.02-3.64.78-7.25 1.74-10.96 2.62-3.85 1.08-7.72 2.08-11.65 3.17-.75.21-1.49.51-2.25.73-.51.08-.72.38-.82.84-.84 2.86-1.68 5.71-2.5 8.65-1.14 4.22-2.26 8.53-3.48 12.76l-4.47 17.31c-1.87 7.15-3.58 14.27-5.44 21.5-.1.45-.27 1.01-.44 1.56-.04.27-.26.57-.6.63-.43.07-.64-.16-.53-.53-.04-.26.01-.44.07-.62 1.46-6.47 3.02-12.86 4.57-19.34 1.79-7.13 3.66-14.28 5.54-21.43 1.21-4.85 2.43-9.61 3.74-14.38.5-1.75.99-3.5 1.5-5.16.04-.27.26-.57.1-.98Zm-39.84 36.44c.24-.13.48-.26.73-.38 2.09-1.66 4.08-3.4 5.95-5.29.46-.43.74-.82 1.32-1.01.34-.06.38-.33.17-.55-.36-.55-.91-.72-1.51-.62-.68.11-1.32.48-1.86.92-2.07 1.75-3.55 3.92-4.73 6.31-.06.19-.11.37-.07.62Zm38.34-36.98c.46.1.68-.11.94-.16.78-.04 1.05-.53 1.29-1.18.48-1.83 1.14-3.7 1.63-5.44.13-.28.17-.55.3-.84q-.1-.07-.18-.06c-1.33 2.5-2.57 5.07-3.98 7.67Z" class="cls-1"/><path d="m337.92 52.45-.34.06c-1.12.1-1.72-.33-2-1.51-.14-.85-.08-1.56.13-2.39.54-2.02 1.46-3.84 2.57-5.6.28-.4.68-.64 1.11-.71l.26-.04c.44.01.63.07.67.33.03.17.04.26-.01.44-.31.75-.71 1.52-1.12 2.2-.53 1.05-.95 2.17-1.29 3.28-.33.67-.38 1.38-.43 2.17v.44c.01.17.13.33.33.47.1.07.19.06.27.04.26-.04.41-.16.65-.28.24-.13.47-.34.7-.55 2.16-1.76 4.01-3.82 5.74-6.04.88-1.02 1.76-2.05 2.34-3.28.14-.2.38-.33.54-.44l.43-.07c.17-.03.34-.06.54.08.1.07.11.16.13.24.03.17-.1.45-.16.64-.37.94-.81 1.98-1.08 2.98-.14.73-.28 1.45-.26 2.15l.04.26c.13.77.51.97 1.19.85l.26-.04c.58-.18 1.07-.44 1.55-.7 2.42-1.28 4.83-2.56 7.35-3.77 1.14-.54 2.29-1 3.44-1.45l.41-.16.37.11c-.03.36-.3.31-.46.43-3.62 1.39-7.09 3.2-10.44 5.16-.47.34-1.04.61-1.61.88l-1.08.36-.78.04c-1.15-.07-1.98-.81-2.15-1.83l-.06-.34c0-.53.08-1.07.16-1.69-.41.16-.54.44-.77.65-1.68 2.03-3.28 3.96-5.2 5.6-.61.54-1.25.91-1.93 1.02Z" class="cls-1"/><path d="m360.63 51.46-.26.04c-.6.1-.9-.11-1-.71l-.08-.51-.11-1.21c.37-3.57 1.88-6.62 4.13-9.37.28-.4.77-.65 1.28-.74l.26-.04c.26-.04.51-.09.64.16l.03.17c.03.17-.04.27-.18.47-1.08 1.41-1.88 2.94-2.66 4.56-.71 1.52-1.24 3.1-1.66 4.75-.04.27-.17.55-.13.81.34-.06.4-.24.54-.44 1.06-1.49 1.93-3.13 2.9-4.69.91-1.38 1.73-2.74 2.56-4.11l.58-.71c.3-.31.62-.45.97-.51.26-.04.53 0 .81.13 2.15.78 4.31.6 6.47.41 1.65-.1 3.27-.37 4.89-.64l3.24-.54c.26-.04.51-.09.87-.06-.03.36-.29.4-.46.43l-4.25.8c-2.3.38-4.7.7-7.06.74-1.22.03-2.39-.13-3.59-.54-.37-.11-.64-.16-.9-.11-.26.04-.48.26-.77.65l-2.49 4.01-2.84 5.03-.92 1.29c-.14.2-.46.43-.8.48Z" class="cls-1"/><path d="m388.47 47.08-.77.13c-.77.13-1.55.17-2.34.13-1.88-.21-3.11-1.32-3.4-3.03l-.07-.95c.08-.54.1-.98.28-1.45 1.42-4.09 3.98-7.15 7.87-9.03.48-.26.98-.43 1.41-.5l.43-.07c.6-.1 1.02-.17 1.46-.16.71.06 1.02.35 1.11.87.03.17.07.43-.06.71-.11.37-.23.74-.44 1.04-1.66 2.12-3.79 3.53-6.41 4.14-.17.03-.34.06-.53 0-.18-.06-.44-.01-.61.01-.6.1-.95.6-1.29 1.18-.47.87-.85 1.72-1.14 2.64-.09.54-.17 1.08-.17 1.61l.04.26c.21 1.28 1.04 2.02 2.44 2.05.54.08 1.05 0 1.56-.09.68-.11 1.44-.33 2.17-.62 2.06-.78 3.98-1.89 5.78-3.16 3.69-2.54 7.29-5.16 10.67-8 .62-.45 1.07-.97 1.59-1.49l.24-.13c.08-.01.17-.03.18.06l.11.16c.01.09-.06.18-.13.28l-.68.64c-1.12 1.15-2.44 2.16-3.76 3.17-3.11 2.36-6.22 4.72-9.55 6.85-1.9 1.19-3.84 2.22-6.02 2.76Zm-.86-8.8c1.93-.5 3.54-1.38 4.86-2.91.23-.21.43-.6.62-.98.06-.18.1-.45.07-.62l-.16-.41c-.21-.23-.38-.2-.64-.16l-.34.06c-.82.31-1.53.78-2.23 1.34-1.01.78-1.9 1.72-2.7 2.73-.21.3-.62.45-.57.8v.09c.13.16.31.21.48.18l.6-.1Z" class="cls-1"/></g></svg>